<svg width="64" height="64" viewBox="0 0 36 36" xmlns="http://www.w3.org/2000/svg">
    <circle cx="20.75" cy="6" r="4" fill="#ffffff" class="clr-i-solid clr-i-solid-path-1"/>
    <path fill="#ffffff" d="M24.84 26.23a1 1 0 0 0-1.4.29a16.6 16.6 0 0 1-3.51 3.77c-.33.25-1.56 1.2-2.08 1c-.36-.11-.15-.82-.08-1.12l.53-1.57c.22-.64 4.05-12 4.47-13.3c.62-1.9.35-3.77-2.48-3.32c-.77.08-8.58 1.09-8.72 1.1a1 1 0 0 0 .13 2s3-.39 3.33-.42a.88.88 0 0 1 .85.44a2.47 2.47 0 0 1-.07 1.71c-.26 1-4.37 12.58-4.5 13.25a2.78 2.78 0 0 0 1.18 3a5 5 0 0 0 3.08.83a8.53 8.53 0 0 0 3.09-.62c2.49-1 5.09-3.66 6.46-5.75a1 1 0 0 0-.28-1.29" class="clr-i-solid clr-i-solid-path-2"/>
    <path fill="none" d="M0 0h36v36H0z"/>
</svg>